<svg width="79" height="42" viewBox="0 0 79 42" fill="none" xmlns="http://www.w3.org/2000/svg">
<path d="M7.13576 27.9332C7.13576 28.7084 7.30989 29.3319 7.65815 29.8037C8.00641 30.2755 8.52318 30.5115 9.20847 30.5115C9.43315 30.5115 9.64098 30.5058 9.83196 30.4946C10.0229 30.4721 10.1802 30.4497 10.3038 30.4272V25.8605C10.1465 25.7594 9.93869 25.6751 9.6803 25.6077C9.43315 25.5403 9.18038 25.5066 8.92199 25.5066C7.73117 25.5066 7.13576 26.3155 7.13576 27.9332ZM12.8146 32.146C12.59 32.2134 12.3316 32.2808 12.0395 32.3482C11.7474 32.4044 11.4385 32.455 11.1127 32.4999C10.7981 32.5448 10.4723 32.5785 10.1353 32.601C9.80949 32.6347 9.49494 32.6516 9.19161 32.6516C8.46139 32.6516 7.80981 32.5448 7.23687 32.3314C6.66392 32.1179 6.18085 31.8146 5.78766 31.4214C5.39446 31.017 5.09114 30.5339 4.87769 29.9722C4.67547 29.3993 4.57437 28.7589 4.57437 28.0512C4.57437 27.3322 4.66424 26.6862 4.84399 26.1133C5.02373 25.5291 5.28212 25.0348 5.61915 24.6304C5.95617 24.2259 6.36622 23.917 6.84929 23.7035C7.34359 23.4901 7.9053 23.3834 8.53441 23.3834C8.88267 23.3834 9.19161 23.4171 9.46123 23.4845C9.74209 23.5519 10.0229 23.6474 10.3038 23.7709V19.7603L12.8146 19.3559V32.146ZM17.6765 32.4325H15.1657V23.5687H17.6765V32.4325ZM17.9124 21.0073C17.9124 21.4679 17.7607 21.833 17.4574 22.1027C17.1653 22.3611 16.8171 22.4902 16.4126 22.4902C16.0082 22.4902 15.6543 22.3611 15.351 22.1027C15.0589 21.833 14.9129 21.4679 14.9129 21.0073C14.9129 20.5467 15.0589 20.1872 15.351 19.9289C15.6543 19.6592 16.0082 19.5244 16.4126 19.5244C16.8171 19.5244 17.1653 19.6592 17.4574 19.9289C17.7607 20.1872 17.9124 20.5467 17.9124 21.0073ZM22.1768 27.7141C22.1768 29.1184 22.7442 29.8205 23.8788 29.8205C24.1372 29.8205 24.3787 29.7868 24.6034 29.7194C24.8281 29.652 25.0191 29.5734 25.1764 29.4835V25.4729C25.0528 25.4505 24.9067 25.4336 24.7382 25.4224C24.5697 25.3999 24.3731 25.3887 24.1484 25.3887C23.4856 25.3887 22.9913 25.6077 22.6655 26.0459C22.3397 26.484 22.1768 27.0401 22.1768 27.7141ZM27.6872 31.3203C27.6872 32.7695 27.3165 33.8424 26.575 34.5389C25.8448 35.2467 24.7101 35.6005 23.1711 35.6005C22.6318 35.6005 22.0926 35.55 21.5533 35.4489C21.0141 35.359 20.5142 35.2354 20.0536 35.0781L20.4917 32.9717C20.8849 33.129 21.295 33.2526 21.7218 33.3425C22.16 33.4323 22.6543 33.4773 23.2048 33.4773C23.9237 33.4773 24.4293 33.32 24.7214 33.0054C25.0247 32.6909 25.1764 32.2865 25.1764 31.7921V31.472C24.9067 31.5955 24.6259 31.691 24.3338 31.7584C24.0529 31.8146 23.744 31.8427 23.407 31.8427C22.1825 31.8427 21.2444 31.4832 20.5928 30.7642C19.9412 30.034 19.6154 29.0173 19.6154 27.7141C19.6154 27.0626 19.7165 26.4728 19.9188 25.9448C20.121 25.4055 20.4131 24.9449 20.795 24.563C21.1882 24.181 21.6657 23.8889 22.2274 23.6867C22.7891 23.4732 23.4238 23.3665 24.1316 23.3665C24.4349 23.3665 24.7438 23.3834 25.0584 23.4171C25.3842 23.4395 25.7044 23.4732 26.0189 23.5182C26.3335 23.5631 26.6312 23.6193 26.912 23.6867C27.2041 23.7429 27.4625 23.8046 27.6872 23.872V31.3203ZM32.553 32.4325H30.0422V23.5687H32.553V32.4325ZM32.7889 21.0073C32.7889 21.4679 32.6373 21.833 32.3339 22.1027C32.0418 22.3611 31.6936 22.4902 31.2892 22.4902C30.8847 22.4902 30.5309 22.3611 30.2275 22.1027C29.9354 21.833 29.7894 21.4679 29.7894 21.0073C29.7894 20.5467 29.9354 20.1872 30.2275 19.9289C30.5309 19.6592 30.8847 19.5244 31.2892 19.5244C31.6936 19.5244 32.0418 19.6592 32.3339 19.9289C32.6373 20.1872 32.7889 20.5467 32.7889 21.0073Z" fill="#FF9500"/>
<path d="M38.3003 30.68C38.5475 30.68 38.7834 30.6743 39.0081 30.6631C39.2328 30.6519 39.4125 30.635 39.5473 30.6126V28.7084C39.4462 28.6859 39.2946 28.6634 39.0924 28.641C38.8901 28.6185 38.7048 28.6073 38.5363 28.6073C38.3003 28.6073 38.0757 28.6241 37.8622 28.6578C37.66 28.6803 37.4802 28.7308 37.323 28.8095C37.1657 28.8881 37.0421 28.9948 36.9522 29.1296C36.8624 29.2645 36.8174 29.433 36.8174 29.6352C36.8174 30.0284 36.9466 30.3036 37.205 30.4609C37.4746 30.6069 37.8397 30.68 38.3003 30.68ZM38.0981 23.3328C38.8396 23.3328 39.4575 23.4171 39.9518 23.5856C40.4461 23.7541 40.8393 23.9956 41.1314 24.3102C41.4347 24.6247 41.6481 25.0067 41.7717 25.4561C41.8953 25.9054 41.9571 26.4054 41.9571 26.9558V32.1797C41.5976 32.2584 41.0977 32.3482 40.4573 32.4493C39.817 32.5617 39.0418 32.6179 38.1318 32.6179C37.5589 32.6179 37.0365 32.5673 36.5647 32.4662C36.1041 32.3651 35.7052 32.2022 35.3682 31.9775C35.0312 31.7416 34.7728 31.4383 34.5931 31.0675C34.4133 30.6968 34.3234 30.2418 34.3234 29.7026C34.3234 29.1858 34.4245 28.7477 34.6268 28.3882C34.8402 28.0287 35.1211 27.7422 35.4693 27.5288C35.8176 27.3153 36.2164 27.1637 36.6658 27.0738C37.1151 26.9727 37.5814 26.9221 38.0644 26.9221C38.3902 26.9221 38.6767 26.939 38.9238 26.9727C39.1822 26.9952 39.3901 27.0289 39.5473 27.0738V26.8379C39.5473 26.411 39.4181 26.0683 39.1598 25.8099C38.9014 25.5516 38.452 25.4224 37.8117 25.4224C37.3848 25.4224 36.9635 25.4561 36.5478 25.5235C36.1321 25.5796 35.7727 25.6639 35.4693 25.7762L35.1492 23.7541C35.2952 23.7092 35.4749 23.6642 35.6884 23.6193C35.9131 23.5631 36.1546 23.5182 36.413 23.4845C36.6714 23.4395 36.941 23.4058 37.2219 23.3834C37.5139 23.3497 37.806 23.3328 38.0981 23.3328ZM43.8062 28.0006C43.8062 27.3603 43.9073 26.7592 44.1096 26.1975C44.323 25.6246 44.6263 25.1303 45.0195 24.7146C45.4127 24.2877 45.8902 23.9507 46.4519 23.7035C47.0136 23.4564 47.6539 23.3328 48.3729 23.3328C48.8448 23.3328 49.2773 23.3777 49.6705 23.4676C50.0637 23.5463 50.4456 23.6642 50.8164 23.8215L50.294 25.8268C50.0581 25.7369 49.7997 25.6583 49.5188 25.5909C49.238 25.5235 48.9234 25.4898 48.5751 25.4898C47.8337 25.4898 47.2776 25.7201 46.9069 26.1807C46.5474 26.6413 46.3676 27.2479 46.3676 28.0006C46.3676 28.7982 46.5361 29.4161 46.8732 29.8543C47.2214 30.2924 47.8225 30.5115 48.6762 30.5115C48.9796 30.5115 49.3054 30.4834 49.6536 30.4272C50.0019 30.371 50.3221 30.2811 50.6141 30.1576L50.968 32.2134C50.6759 32.337 50.3108 32.4437 49.8727 32.5336C49.4346 32.6235 48.9515 32.6684 48.4235 32.6684C47.6146 32.6684 46.9181 32.5505 46.3339 32.3145C45.7497 32.0674 45.2667 31.736 44.8847 31.3203C44.514 30.9046 44.2387 30.416 44.059 29.8543C43.8905 29.2813 43.8062 28.6634 43.8062 28.0006ZM51.804 28.0006C51.804 27.3603 51.9051 26.7592 52.1073 26.1975C52.3208 25.6246 52.6241 25.1303 53.0173 24.7146C53.4105 24.2877 53.8879 23.9507 54.4497 23.7035C55.0114 23.4564 55.6517 23.3328 56.3707 23.3328C56.8425 23.3328 57.275 23.3777 57.6682 23.4676C58.0614 23.5463 58.4434 23.6642 58.8141 23.8215L58.2917 25.8268C58.0558 25.7369 57.7974 25.6583 57.5166 25.5909C57.2357 25.5235 56.9212 25.4898 56.5729 25.4898C55.8315 25.4898 55.2754 25.7201 54.9046 26.1807C54.5451 26.6413 54.3654 27.2479 54.3654 28.0006C54.3654 28.7982 54.5339 29.4161 54.8709 29.8543C55.2192 30.2924 55.8202 30.5115 56.674 30.5115C56.9773 30.5115 57.3031 30.4834 57.6514 30.4272C57.9997 30.371 58.3198 30.2811 58.6119 30.1576L58.9658 32.2134C58.6737 32.337 58.3086 32.4437 57.8705 32.5336C57.4323 32.6235 56.9493 32.6684 56.4213 32.6684C55.6124 32.6684 54.9159 32.5505 54.3317 32.3145C53.7475 32.0674 53.2644 31.736 52.8825 31.3203C52.5118 30.9046 52.2365 30.416 52.0568 29.8543C51.8883 29.2813 51.804 28.6634 51.804 28.0006ZM59.8018 28.068C59.8018 27.2816 59.9197 26.5963 60.1556 26.0122C60.4028 25.4167 60.723 24.9224 61.1162 24.5292C61.5094 24.1361 61.9587 23.8383 62.4643 23.6361C62.981 23.4339 63.5091 23.3328 64.0483 23.3328C65.3065 23.3328 66.3007 23.7204 67.031 24.4955C67.7612 25.2595 68.1263 26.3885 68.1263 27.8827C68.1263 28.0287 68.1207 28.1916 68.1094 28.3713C68.0982 28.5399 68.087 28.6915 68.0757 28.8263H62.38C62.4362 29.3431 62.6777 29.7531 63.1046 30.0565C63.5315 30.3598 64.1045 30.5115 64.8235 30.5115C65.2841 30.5115 65.7334 30.4721 66.1716 30.3935C66.6209 30.3036 66.986 30.1969 67.2669 30.0733L67.6039 32.1123C67.4691 32.1797 67.2894 32.2471 67.0647 32.3145C66.84 32.3819 66.5872 32.4381 66.3064 32.483C66.0367 32.5392 65.7447 32.5842 65.4301 32.6179C65.1155 32.6516 64.801 32.6684 64.4864 32.6684C63.6888 32.6684 62.9923 32.5505 62.3969 32.3145C61.8127 32.0786 61.324 31.7584 60.9308 31.354C60.5488 30.9383 60.2624 30.4497 60.0714 29.888C59.8916 29.3262 59.8018 28.7196 59.8018 28.068ZM65.6997 27.1075C65.6885 26.894 65.6492 26.6862 65.5818 26.484C65.5256 26.2818 65.4301 26.102 65.2953 25.9448C65.1717 25.7875 65.0088 25.6583 64.8066 25.5572C64.6156 25.4561 64.3741 25.4055 64.082 25.4055C63.8011 25.4055 63.5596 25.4561 63.3574 25.5572C63.1552 25.647 62.9867 25.7706 62.8519 25.9279C62.717 26.0852 62.6103 26.2705 62.5317 26.484C62.4643 26.6862 62.4137 26.894 62.38 27.1075H65.6997ZM73.6027 32.601C72.8725 32.5898 72.2771 32.5111 71.8165 32.3651C71.3671 32.219 71.0076 32.0168 70.738 31.7584C70.4796 31.4888 70.2998 31.1686 70.1987 30.7979C70.1089 30.416 70.0639 29.9891 70.0639 29.5172V19.7603L72.5748 19.3559V29.0117C72.5748 29.2364 72.5916 29.4386 72.6253 29.6183C72.659 29.7981 72.7208 29.9497 72.8107 30.0733C72.9118 30.1969 73.0522 30.298 73.232 30.3766C73.4117 30.4553 73.6532 30.5058 73.9566 30.5283L73.6027 32.601Z" fill="#0B00AE"/>
<rect x="43.043" width="6.44165" height="16.1041" rx="3.22083" fill="#0B00AE"/>
<circle cx="46.2652" cy="3.2186" r="2.41562" fill="#FF9500"/>
<rect x="35.7969" y="4.83557" width="6.44165" height="11.2729" rx="3.22083" fill="#0B00AE"/>
<rect x="28.5498" y="9.66809" width="6.44165" height="6.44165" rx="3.22083" fill="#0B00AE"/>
<circle cx="39.0182" cy="8.05417" r="2.41562" fill="#FF9500"/>
<circle cx="31.7721" cy="12.8867" r="2.41562" fill="#FF9500"/>
</svg>
